<?xml version="1.0" encoding="UTF-8" standalone="no"?>
<svg width="100px" height="100px" viewBox="0 0 100 100" version="1.1" xmlns="http://www.w3.org/2000/svg" xmlns:xlink="http://www.w3.org/1999/xlink">
    <!-- Generator: Sketch 3.8.3 (29802) - http://www.bohemiancoding.com/sketch -->
    <title>sound-on</title>
    <desc>Created with Sketch.</desc>
    <defs></defs>
    <g id="Page-1" stroke="none" stroke-width="1" fill="none" fill-rule="evenodd">
        <g id="sound-on" fill="#000000">
            <path d="M28.0748663,36.3636364 L0,36.3636364 L0,65.9090909 L30.4812834,65.9090909 L54.5454545,88.6363636 L54.5454545,11.3636364 L28.0748663,36.3636364 Z" id="Combined-Shape-Copy"></path>
            <path d="M84.6032335,82.4592965 C94.5340754,74.7600841 100.468182,62.9599381 100.468182,50.1791986 C100.468182,38.1777252 95.2347685,27.0146095 86.3177905,19.2913999 L80.3660059,26.1631456 C87.313543,32.1805749 91.3772727,40.8487007 91.3772727,50.1791986 C91.3772727,60.1143215 86.7696647,69.2766862 79.0331302,75.2746895 L84.6032335,82.4592965 L84.6032335,82.4592965 Z" id="Shape-Copy"></path>
            <path d="M68.6941426,71.5946428 C75.48494,66.3298533 79.5454545,58.2554001 79.5454545,49.5119787 C79.5454545,41.3018627 75.9644339,33.663378 69.8670756,28.382309 L63.9152911,35.2540546 C68.0432084,38.8293434 70.4545455,43.9728382 70.4545455,49.5119787 C70.4545455,55.4097835 67.7205293,60.8464555 63.1240393,64.4100358 L68.6941426,71.5946428 L68.6941426,71.5946428 Z" id="Shape-Copy-2"></path>
        </g>
    </g>
</svg>