<?xml version="1.0" encoding="UTF-8" standalone="no"?>
<svg width="100px" height="100px" viewBox="0 0 100 100" version="1.1" xmlns="http://www.w3.org/2000/svg" xmlns:xlink="http://www.w3.org/1999/xlink">
    <!-- Generator: Sketch 39.1 (31720) - http://www.bohemiancoding.com/sketch -->
    <title>Artboard 2</title>
    <desc>Created with Sketch.</desc>
    <defs></defs>
    <g id="Page-1" stroke="none" stroke-width="1" fill="none" fill-rule="evenodd">
        <g id="Artboard-2" fill="#72D687">
            <path d="M100,50 C100,22.3857625 77.6142375,0 50,0 C22.3857625,0 0,22.3857625 0,50 C0,77.6142375 22.3857625,100 50,100 C77.6142375,100 100,77.6142375 100,50 Z M3.61445783,50 C3.61445783,24.3819724 24.3819724,3.61445783 50,3.61445783 C75.6180276,3.61445783 96.3855422,24.3819724 96.3855422,50 C96.3855422,75.6180276 75.6180276,96.3855422 50,96.3855422 C24.3819724,96.3855422 3.61445783,75.6180276 3.61445783,50 Z" id="Oval-Copy-3"></path>
            <path d="M71.8713201,43.756501 L79,48.4756681 L78.9900151,51.4700134 L36.8010652,79 L34,77.499546 L34,66.7269426 C34,65.7353518 34.809513,64.9315087 35.8080979,64.9315087 C36.8066827,64.9315087 37.6161957,65.7353518 37.6161957,66.7269426 L37.6161957,77.499546 L34.8151305,75.9990921 L77.0040804,48.4691054 L76.9940955,51.4634507 L69.8649719,46.7439899 C69.0913993,47.2687631 68.1560211,47.5756475 67.1484606,47.5756475 C64.4855677,47.5756475 62.3268664,45.4320658 62.3268664,42.7878238 C62.3268664,40.1435817 64.4855677,38 67.1484606,38 C69.8113536,38 71.9700549,40.1435817 71.9700549,42.7878238 C71.9700549,43.1196847 71.9360531,43.4436597 71.8713201,43.756501 Z" id="Combined-Shape"></path>
            <path d="M33.9999762,50.6799 L33.9999762,22.5224996 L36.7778065,21 L57.1776446,34.2984679 C58.0122652,34.8425494 58.251063,35.9652609 57.7110144,36.8061142 C57.1709657,37.6469675 56.0565761,37.8875486 55.2219555,37.343467 L34.8221174,24.0449991 L37.5999476,22.5224996 L37.5999476,50.6799 C39.3590319,51.3972766 40.5999238,53.13474 40.5999238,55.1641935 C40.5999238,57.8349357 38.4509077,60 35.7999619,60 C33.1490162,60 31,57.8349357 31,55.1641935 C31,53.13474 32.240892,51.3972766 33.9999762,50.6799 Z" id="Combined-Shape"></path>
        </g>
    </g>
</svg>